<?xml version="1.0" standalone="no"?>
<!DOCTYPE svg PUBLIC "-//W3C//DTD SVG 20010904//EN"
 "http://www.w3.org/TR/2001/REC-SVG-20010904/DTD/svg10.dtd">
<svg version="1.0" xmlns="http://www.w3.org/2000/svg"
 width="512.000000pt" height="512.000000pt" viewBox="0 0 512.000000 512.000000"
 preserveAspectRatio="xMidYMid meet">
<metadata>
Created by potrace 1.14, written by Peter Selinger 2001-2017
</metadata>
<g transform="translate(0.000000,512.000000) scale(0.100000,-0.100000)"
fill="#000000" stroke="none">
<path d="M1742 5013 c-4 -1 -19 -4 -33 -7 -33 -7 -72 -43 -93 -84 -15 -29 -17
-76 -14 -430 3 -357 5 -400 21 -429 34 -64 105 -113 162 -113 l25 0 1 -157 c1
-176 4 -221 19 -309 22 -133 84 -259 178 -363 l49 -55 -81 -32 c-45 -18 -173
-69 -286 -114 -113 -46 -227 -91 -255 -102 -27 -10 -59 -23 -70 -27 -11 -5
-121 -48 -245 -96 -245 -95 -312 -125 -398 -182 -169 -113 -314 -330 -356
-537 -10 -48 -68 -297 -87 -376 -12 -47 -23 -96 -26 -110 -2 -14 -13 -61 -23
-105 -128 -540 -129 -546 -115 -628 34 -194 199 -371 386 -416 86 -20 165 -24
445 -23 l281 1 34 -42 c60 -75 109 -110 204 -147 l60 -23 1030 0 c1027 0 1030
0 1095 22 91 30 145 68 209 148 l34 43 276 -2 c288 -2 374 3 468 28 198 52
369 266 375 470 1 27 -15 121 -36 209 -20 88 -82 352 -136 586 -55 235 -107
449 -116 475 -83 246 -277 441 -539 539 -81 31 -186 72 -590 232 -159 63 -331
130 -381 148 -51 18 -106 41 -123 50 l-31 16 39 42 c117 124 186 272 205 437
3 25 5 126 5 224 1 99 4 177 7 173 10 -9 91 19 120 42 15 12 39 38 53 59 26
37 26 38 29 277 2 214 1 244 -15 274 -28 54 -80 89 -139 94 -102 10 -150 58
-165 165 -9 62 -25 90 -74 128 l-36 27 -669 1 c-369 1 -673 0 -678 -1z"/>
</g>
</svg>
