<svg viewBox="0 0 264 305" fill="none" xmlns="http://www.w3.org/2000/svg">
<path d="M259.1 241.637H4.9C2.63587 241.637 0.800003 239.292 0.800003 236.4V5.9499C0.800003 3.05761 2.63587 0.712402 4.9 0.712402H259.1C260.187 0.712402 261.231 1.26421 261.999 2.24624C262.768 3.22827 263.2 4.56104 263.2 5.9499V236.4C263.2 237.789 262.768 239.122 261.999 240.104C261.231 241.086 260.187 241.637 259.1 241.637ZM9 231.162H255V11.1874H9V231.162Z" fill="#3071E7"/>
<path d="M4.89999 199.737H259.1V210.212H4.89999V199.737Z" fill="#3071E7"/>
<path d="M173 283.538H91C89.7389 283.538 88.5473 282.794 87.7694 281.524C86.9934 280.252 86.717 278.597 87.0226 277.033L95.2226 235.133C95.6784 232.799 97.3184 231.163 99.2 231.163H164.8C166.682 231.163 168.322 232.799 168.777 235.133L176.977 277.033C177.283 278.597 177.007 280.252 176.231 281.524C175.453 282.794 174.261 283.538 173 283.538ZM96.2527 273.063H167.752L161.602 241.638H102.403L96.2527 273.063Z" fill="#3071E7"/>
<path d="M185.3 304.487H78.7C76.5255 304.487 74.4389 303.384 72.9014 301.42C71.364 299.456 70.5 296.79 70.5 294.012V283.537C70.5 280.76 71.364 278.094 72.9014 276.13C74.4389 274.166 76.5255 273.062 78.7 273.062H185.3C187.474 273.062 189.561 274.166 191.099 276.13C192.636 278.094 193.5 280.76 193.5 283.537V294.012C193.5 296.79 192.636 299.456 191.099 301.42C189.561 303.384 187.474 304.487 185.3 304.487ZM78.7 294.012H185.3V283.537H78.7V294.012Z" fill="#3071E7"/>
<path d="M82.8 204.975H74.6V194.222L60.4749 193.233C58.6629 193.106 57.1309 191.472 56.7117 189.216C55.3994 182.182 53.2139 175.465 50.2412 169.313C49.2913 167.337 49.4688 164.8 50.6805 163.075L60.1433 149.588L48.2533 134.4L37.6997 146.493C36.3471 148.043 34.3593 148.27 32.8125 147.054C27.997 143.254 22.7382 140.465 17.2325 138.788C15.468 138.25 14.1904 136.293 14.0916 133.981L13.3174 115.937H4.89949V105.462H17.1995C19.3794 105.457 21.1805 107.632 21.2995 110.412L22.1195 129.608V129.606C26.3934 131.21 30.5191 133.405 34.4195 136.153L45.6451 123.296C47.2667 121.439 49.7432 121.526 51.2824 123.494L68.6674 145.702C70.2086 147.669 70.2763 150.832 68.823 152.904L58.7744 167.265C60.9251 172.247 62.6438 177.518 63.8997 182.977L78.9268 184.025H78.9249C81.1012 184.177 82.8034 186.478 82.7998 189.262L82.8 204.975Z" fill="#3071E7"/>
<path d="M45.9 204.975H37.7C37.6908 193.866 34.2315 183.216 28.0816 175.362C21.9335 167.506 13.5962 163.086 4.89999 163.075V152.6C15.7704 152.616 26.1923 158.139 33.8783 167.957C41.5643 177.775 45.8873 191.089 45.9 204.975V204.975Z" fill="#3071E7"/>
<path d="M259.1 105.463H246.8C244.62 105.467 242.819 103.293 242.7 100.513L241.88 81.3165V81.3189C237.606 79.7149 233.48 77.5193 229.58 74.7717L218.338 87.6547C216.716 89.5113 214.24 89.4247 212.701 87.456L195.316 65.2478C193.775 63.2814 193.707 60.1202 195.16 58.0464L205.225 43.6597C203.074 38.6771 201.356 33.4068 200.1 27.9472L185.075 26.8997C182.898 26.7477 181.196 24.4469 181.2 21.6622V5.94971H189.4V16.703L203.525 17.6921C205.335 17.8183 206.867 19.4504 207.288 21.7043C208.6 28.7376 210.784 35.4553 213.759 41.6068C214.71 43.5826 214.533 46.1219 213.319 47.8499L203.856 61.3316L215.746 76.5203L226.3 64.4322C227.653 62.882 229.64 62.6551 231.187 63.871C236.003 67.6706 241.262 70.4601 246.767 72.1367C248.532 72.6745 249.809 74.6315 249.908 76.9439L250.682 94.9879H259.1L259.1 105.463Z" fill="#3071E7"/>
<path d="M259.1 58.3252C248.23 58.3088 237.808 52.7861 230.122 42.9682C222.436 33.1504 218.113 19.8365 218.1 5.9502H226.3C226.309 17.0591 229.768 27.7095 235.918 35.5633C242.066 43.4196 250.404 47.8388 259.1 47.8502V58.3252Z" fill="#3071E7"/>
<path d="M140.2 184.025H123.8C121.644 184.032 119.854 181.906 119.7 179.159L118.668 160.456C116.015 159.406 113.447 158.045 110.991 156.392L99.8916 168.675H99.8934C98.268 170.471 95.8336 170.361 94.3127 168.422L82.7137 153.605C81.1963 151.662 81.1103 148.553 82.516 146.476L92.1311 132.297V132.3C90.8371 129.162 89.7717 125.881 88.9499 122.493L74.3089 121.175C72.1583 120.978 70.4945 118.692 70.5 115.937V94.9872C70.4945 92.2328 72.1583 89.9461 74.3089 89.7497L88.9499 88.4193C89.7699 85.0312 90.8352 81.7506 92.1311 78.6153L82.516 64.4363C81.1103 62.3624 81.1963 59.2502 82.7137 57.3073L94.3127 42.4903C95.8337 40.5519 98.2681 40.442 99.8934 42.2401L110.993 54.5228H110.991C113.447 52.8674 116.016 51.5089 118.668 50.459L119.7 31.7656C119.854 29.0183 121.644 26.8929 123.8 26.8999H140.2C142.356 26.8929 144.146 29.0183 144.3 31.7656L145.341 50.4686C147.992 51.5184 150.562 52.8792 153.016 54.5324L164.116 42.2497C165.739 40.454 168.176 40.5639 169.696 42.5022L181.295 57.3192C182.813 59.2623 182.899 62.372 181.491 64.4482L171.876 78.6272V78.6248C173.172 81.7603 174.237 85.0433 175.057 88.4312L189.691 89.75C191.842 89.9464 193.505 92.2331 193.5 94.9875V115.937C193.505 118.692 191.842 120.979 189.691 121.175L175.05 122.505C174.228 125.891 173.163 129.174 171.869 132.309L181.484 146.488C182.89 148.562 182.803 151.674 181.286 153.617L169.687 168.434C168.166 170.373 165.732 170.483 164.106 168.685L153.007 156.402H153.009C150.552 158.057 147.984 159.416 145.332 160.466L144.3 179.159C144.146 181.906 142.356 184.032 140.2 184.025H140.2ZM127.617 173.55H136.382L137.361 156.009H137.363C137.493 153.729 138.767 151.821 140.508 151.295C144.339 150.13 147.997 148.185 151.343 145.534C152.874 144.339 154.832 144.552 156.183 146.057L166.592 157.58L172.788 149.665L163.768 136.368C162.595 134.637 162.437 132.136 163.378 130.188C165.452 125.912 166.975 121.238 167.888 116.346C168.3 114.12 169.794 112.495 171.578 112.329L185.3 111.062V99.862L171.569 98.6111C169.784 98.4427 168.291 96.8154 167.879 94.5894C166.967 89.6956 165.444 85.0242 163.369 80.7522C162.428 78.8045 162.585 76.3003 163.759 74.5702L172.779 61.2729L166.583 53.358L156.173 64.8805C154.819 66.3793 152.86 66.5803 151.336 65.3785C147.988 62.7294 144.329 60.784 140.5 59.6173C138.758 59.0912 137.486 57.1832 137.354 54.9035L136.384 37.3744H127.616L126.637 54.9155C126.507 57.1952 125.233 59.1032 123.493 59.6292C119.662 60.7936 116.003 62.739 112.657 65.3905C111.132 66.5923 109.172 66.3913 107.817 64.8925L97.4081 53.37L91.2122 61.2849L100.232 74.5821C101.413 76.3054 101.579 78.8095 100.642 80.7618C98.5666 85.0359 97.0437 89.7074 96.1322 94.599C95.7222 96.8249 94.2286 98.4546 92.4422 98.623L78.6999 99.8622V111.06L92.4314 112.311V112.313C94.216 112.479 95.7096 114.106 96.1214 116.33C97.0329 121.224 98.5558 125.897 100.631 130.172C101.567 132.127 101.4 134.628 100.221 136.354L91.2014 149.651L97.3973 157.566L107.807 146.044C109.156 144.535 111.116 144.323 112.644 145.52C115.992 148.169 119.651 150.114 123.48 151.281C125.222 151.807 126.494 153.715 126.624 155.995L127.617 173.55Z" fill="#3071E7"/>
<path d="M132 136.888C125.475 136.888 119.219 133.577 114.604 127.685C109.992 121.79 107.4 113.798 107.4 105.463C107.4 97.1269 109.992 89.1354 114.604 83.2406C119.219 77.3484 125.475 74.0376 132 74.0376C138.525 74.0376 144.781 77.3484 149.396 83.2406C154.008 89.1352 156.6 97.1269 156.6 105.463C156.593 113.794 153.999 121.783 149.388 127.675C144.776 133.565 138.522 136.878 132 136.888ZM132 84.5126C127.651 84.5126 123.48 86.7198 120.403 90.648C117.328 94.5784 115.6 99.9073 115.6 105.463C115.6 111.018 117.328 116.347 120.403 120.277C123.48 124.205 127.651 126.413 132 126.413C136.349 126.413 140.52 124.205 143.597 120.277C146.672 116.347 148.4 111.018 148.4 105.463C148.4 99.9073 146.672 94.5782 143.597 90.648C140.52 86.7198 136.349 84.5126 132 84.5126Z" fill="#3071E7"/>
<path d="M50 63.5626V53.0876C56.5216 53.0782 62.7761 49.7651 67.3882 43.875C71.9989 37.9828 74.5925 29.9935 74.6 21.6626H82.8C82.7908 32.7715 79.3315 43.4219 73.1816 51.2757C67.0335 59.132 58.6962 63.5512 50 63.5626Z" fill="#3071E7"/>
<path d="M189.4 189.262H181.2C181.209 178.153 184.669 167.503 190.818 159.649C196.967 151.793 205.304 147.374 214 147.362V157.837C207.478 157.847 201.224 161.16 196.612 167.05C192.001 172.942 189.408 180.931 189.4 189.262Z" fill="#3071E7"/>
<path d="M33.6 53.0874H41.8V63.5624H33.6V53.0874Z" fill="#3071E7"/>
<path d="M17.2 53.0874H25.4V63.5624H17.2V53.0874Z" fill="#3071E7"/>
<path d="M222.2 147.362H230.4V157.837H222.2V147.362Z" fill="#3071E7"/>
<path d="M238.6 147.362H246.8V157.837H238.6V147.362Z" fill="#3071E7"/>
</svg>
